<svg xmlns="http://www.w3.org/2000/svg" width="417.136" height="666.717" viewBox="0 0 417.136 666.717"><path d="M1920,3552.579a70.892,70.892,0,0,1-25.809,7.94c-25.545,2.836-49.439-7.722-62.414-25.377a103.587,103.587,0,0,0-13.008-15.866c-38.557-38.558-99.881-40.448-137.193-3.135a93.516,93.516,0,0,0-27.295,63.818c-1,17.984-9.131,36.717-24.029,51.616a81.9,81.9,0,0,1-42.781,22.975c-21.518,1.917-41.908,10.684-57.713,26.486-38.662,38.664-35.23,104.778,7.662,147.671a118.582,118.582,0,0,0,48.672,29.608c27.383,9.853,56.078,28.089,81.588,53.6,38.848,38.849,60.846,85.095,62.014,122.822l.008.006c1.555,29.32,14.035,58.891,37.207,82.064,31.641,31.639,75.2,43.35,113.776,34.523,7.908-1.225,26.152-2.912,39.316,4.613Z" transform="translate(-1502.864 -3489.227)" fill="#f4fafe"/></svg>