<svg xmlns="http://www.w3.org/2000/svg" width="278.622" height="966.048" viewBox="0 0 278.622 966.048"><path d="M193.534,1389.786a107.652,107.652,0,0,1-64.127-130.75c12.613-31.266,14.111-64.306,1.712-94.331-20.011-48.457-71.2-76.948-131.119-79.417v966.048c17.6-13.917,30.571-26.619,40.339-35.221,17.217-15.161,31.873-32.932,42.274-52.493,25.3-47.589,14.233-100.309-21.019-139.549l.018-.016c-18.686-21.114-24.229-53.311-11.644-86.608,14.133-37.392,47.234-65.893,83.151-75.519a205.708,205.708,0,0,0,33.249-10.552c85.8-35.43,132.818-120.934,103.543-191.824C256.14,1426.206,228.2,1402.186,193.534,1389.786Z" transform="translate(0 -1085.289)" fill="#f4fafe"/></svg>