<svg xmlns="http://www.w3.org/2000/svg" width="924.812" height="903.369" viewBox="0 0 924.812 903.369"><path d="M0,3320.191c89.28-8.148,113.665-88.7,318.28-16.826,129.666,45.548,208.666,6.021,244-6.966a158.6,158.6,0,0,0,50.465-29.628c35.475-31.408,43.921-79.854,28.889-125.35l.019-.007c-7.866-24.381-1.747-53.544,19.034-77.306,23.338-26.687,58.747-39.227,90.227-34.825a164.133,164.133,0,0,0,29.677,2.688c79.254,0,144.221-55.887,144.221-126.057,0-33.014-14.223-63.083-37.537-85.674-17.451-17.857-28.351-43.113-28.351-71.131a102.471,102.471,0,0,1,20.354-61.831c20.144-22.035,32.092-49.453,32.092-79.173,0-72.711-71.475-131.651-159.642-131.651a185.393,185.393,0,0,0-80.453,17.923c-38.269,16.485-86.5,26.321-138.936,26.321-79.853,0-149.991-22.8-189.965-57.179l-.014,0c-31.733-26.107-74.949-42.178-122.582-42.178-65.035,0-121.842,29.952-152.416,74.52-9.135,11.42-36.209,40.8-67.362,32.649Z" transform="translate(0 -2421.344)" fill="#f4fafe"/></svg>