<svg xmlns="http://www.w3.org/2000/svg" width="627" height="375" viewBox="0 0 627 375"><g transform="translate(-0.068 -0.498)"><g opacity="0.3"><path d="M8.582,0H60.069A8.581,8.581,0,0,1,68.65,8.581V22.342a8.583,8.583,0,0,1-8.583,8.583H8.58A8.58,8.58,0,0,1,0,22.344V8.582A8.582,8.582,0,0,1,8.582,0Z" transform="translate(556.861 169.673)" fill="#d8ecf3"/><path d="M625.512,193.472c0,3.919-3.594,7.126-7.985,7.126H569.615c-4.392,0-7.986-3.207-7.986-7.126V182.044c0-3.918,3.594-7.125,7.986-7.125h47.912c4.391,0,7.985,3.207,7.985,7.125Z" fill="#b9d0d6"/><path d="M555.432,192.014l0-13.758a10.035,10.035,0,0,1,10.012-10.012h51.49a10.034,10.034,0,0,1,10.009,10.013h0v13.758a10.031,10.031,0,0,1-10.009,10.011h0l-51.49,0a10.034,10.034,0,0,1-10.01-10.013Zm10.01-20.91a7.193,7.193,0,0,0-7.151,7.152h0v13.758a7.2,7.2,0,0,0,7.151,7.154h0l51.49,0a7.193,7.193,0,0,0,7.15-7.152h0V178.256a7.2,7.2,0,0,0-7.15-7.152h-51.49Z" fill="#152054"/><path d="M8.582,0H60.07a8.58,8.58,0,0,1,8.58,8.58V22.342a8.58,8.58,0,0,1-8.58,8.58H8.582A8.582,8.582,0,0,1,0,22.34V8.582A8.582,8.582,0,0,1,8.582,0Z" transform="translate(524.303 138.746)" fill="#d8ecf3"/><path d="M592.953,162.543c0,3.919-3.594,7.126-7.986,7.126H537.055c-4.393,0-7.985-3.207-7.985-7.126V151.117c0-3.92,3.592-7.127,7.985-7.127h47.912c4.392,0,7.986,3.207,7.986,7.127Z" fill="#b9d0d6"/><path d="M522.871,161.085V147.327a10.035,10.035,0,0,1,10.012-10.012h51.488a10.037,10.037,0,0,1,10.012,10.013h0v13.758A10.038,10.038,0,0,1,584.371,171.1H532.883a10.038,10.038,0,0,1-10.012-10.014Zm10.012-20.91a7.2,7.2,0,0,0-7.153,7.152h0v13.758a7.2,7.2,0,0,0,7.153,7.154h0l51.488,0a7.194,7.194,0,0,0,7.151-7.152h0V147.327a7.2,7.2,0,0,0-7.151-7.152H532.883Z" fill="#152054"/></g><g opacity="0.3"><path d="M8.582,0H60.069a8.582,8.582,0,0,1,8.582,8.582v13.76a8.582,8.582,0,0,1-8.582,8.582H8.58A8.58,8.58,0,0,1,0,22.344V8.582A8.582,8.582,0,0,1,8.582,0Z" transform="translate(1.499 191.18)" fill="#d8ecf3"/><path d="M70.15,214.977c0,3.918-3.592,7.127-7.984,7.127H14.253c-4.394,0-7.985-3.209-7.985-7.127V203.549c0-3.918,3.591-7.125,7.985-7.125H62.166c4.392,0,7.984,3.207,7.984,7.125Z" fill="#b9d0d6"/><path d="M.07,213.52l0-13.759A10.034,10.034,0,0,1,10.081,189.75H61.57a10.036,10.036,0,0,1,10.011,10.012h0V213.52A10.033,10.033,0,0,1,61.57,223.53h0l-51.489,0A10.034,10.034,0,0,1,.07,213.52Zm10.011-20.911a7.2,7.2,0,0,0-7.152,7.152h0V213.52a7.2,7.2,0,0,0,7.152,7.153h0l51.489,0a7.192,7.192,0,0,0,7.15-7.15h0V199.761a7.2,7.2,0,0,0-7.15-7.152H10.081Z" fill="#152054"/><path d="M8.582,0H60.068A8.582,8.582,0,0,1,68.65,8.582v13.76a8.58,8.58,0,0,1-8.58,8.58H8.581A8.581,8.581,0,0,1,0,22.341V8.582A8.582,8.582,0,0,1,8.582,0Z" transform="translate(33.055 160.252)" fill="#d8ecf3"/><path d="M101.705,184.048c0,3.92-3.593,7.126-7.985,7.126H45.807c-4.392,0-7.986-3.206-7.986-7.126V172.622c0-3.92,3.594-7.127,7.986-7.127H93.72c4.392,0,7.985,3.207,7.985,7.127Z" fill="#b9d0d6"/><path d="M31.624,182.591V168.832A10.035,10.035,0,0,1,41.636,158.82H93.123a10.036,10.036,0,0,1,10.011,10.013h0v13.759A10.036,10.036,0,0,1,93.123,192.6H41.636a10.035,10.035,0,0,1-10.012-10.013Zm10.012-20.91a7.191,7.191,0,0,0-7.152,7.151h0v13.759a7.2,7.2,0,0,0,7.152,7.153h0l51.487,0a7.194,7.194,0,0,0,7.151-7.151h0V168.832a7.194,7.194,0,0,0-7.151-7.152H41.636Z" fill="#152054"/></g><g opacity="0.3"><path d="M8.582,0H60.069a8.58,8.58,0,0,1,8.58,8.58V22.342a8.582,8.582,0,0,1-8.582,8.582H8.582A8.582,8.582,0,0,1,0,22.343V8.582A8.582,8.582,0,0,1,8.582,0Z" transform="translate(93.638 32.858)" fill="#d8ecf3"/><path d="M162.288,56.655c0,3.92-3.594,7.128-7.985,7.128H106.39c-4.392,0-7.985-3.208-7.985-7.128V45.231C98.4,41.31,102,38.1,106.39,38.1H154.3c4.391,0,7.985,3.207,7.985,7.128Z" fill="#b9d0d6"/><path d="M92.208,55.2l0-13.759a10.033,10.033,0,0,1,10.012-10.01h0l51.488,0A10.038,10.038,0,0,1,163.718,41.44h0V55.2A10.036,10.036,0,0,1,153.706,65.21h0l-51.488,0A10.036,10.036,0,0,1,92.208,55.2Zm10.01-20.91a7.194,7.194,0,0,0-7.151,7.151h0V55.2a7.194,7.194,0,0,0,7.151,7.153h0l51.488,0a7.193,7.193,0,0,0,7.151-7.151h0V41.44a7.2,7.2,0,0,0-7.151-7.152H102.218Z" fill="#152054"/><path d="M8.581,0H60.069a8.58,8.58,0,0,1,8.58,8.58V22.341a8.581,8.581,0,0,1-8.581,8.581H8.582A8.582,8.582,0,0,1,0,22.341V8.581A8.581,8.581,0,0,1,8.581,0Z" transform="translate(62.978 1.931)" fill="#d8ecf3"/><path d="M131.627,25.727c0,3.92-3.593,7.126-7.985,7.126H75.729c-4.391,0-7.984-3.206-7.984-7.126V14.3c0-3.919,3.593-7.126,7.984-7.126h47.913c4.392,0,7.985,3.207,7.985,7.126Z" fill="#b9d0d6"/><path d="M61.547,24.271l0-13.759A10.039,10.039,0,0,1,71.558.5h51.488a10.037,10.037,0,0,1,10.011,10.014h0V24.271a10.036,10.036,0,0,1-10.011,10.011H71.558A10.036,10.036,0,0,1,61.547,24.271ZM71.558,3.36a7.192,7.192,0,0,0-7.151,7.152h0V24.271a7.193,7.193,0,0,0,7.151,7.152h0l51.488,0a7.193,7.193,0,0,0,7.151-7.15h0V10.512a7.2,7.2,0,0,0-7.151-7.153H71.558Z" fill="#152054"/><path d="M8.581,0H60.07a8.581,8.581,0,0,1,8.581,8.581v13.76a8.581,8.581,0,0,1-8.581,8.581H8.582A8.582,8.582,0,0,1,0,22.341V8.581A8.581,8.581,0,0,1,8.581,0Z" transform="translate(131.865 1.931)" fill="#d8ecf3"/><path d="M200.517,25.727c0,3.92-3.594,7.126-7.986,7.126H144.618c-4.391,0-7.984-3.206-7.984-7.126V14.3c0-3.919,3.593-7.126,7.984-7.126h47.913c4.392,0,7.986,3.207,7.986,7.126Z" fill="#b9d0d6"/><path d="M130.435,24.271V10.512A10.034,10.034,0,0,1,140.446.5h51.489a10.037,10.037,0,0,1,10.011,10.014h0V24.271a10.035,10.035,0,0,1-10.011,10.011H140.446a10.036,10.036,0,0,1-10.011-10.012ZM140.446,3.36a7.192,7.192,0,0,0-7.15,7.152h0V24.271a7.193,7.193,0,0,0,7.15,7.152h0l51.489,0a7.192,7.192,0,0,0,7.151-7.15h0V10.512a7.2,7.2,0,0,0-7.151-7.153H140.446Z" fill="#152054"/></g><path d="M187.068,23.4A13.194,13.194,0,1,1,173.873,10.2,13.193,13.193,0,0,1,187.068,23.4Z" fill="#f9e35d"/><path d="M158.725,23.4A15.146,15.146,0,0,1,173.874,8.247h0A15.144,15.144,0,0,1,189.022,23.4h0a15.148,15.148,0,0,1-15.148,15.149h0A15.15,15.15,0,0,1,158.725,23.4Zm3.91,0a11.25,11.25,0,0,0,11.239,11.238h0A11.253,11.253,0,0,0,185.114,23.4h0a11.252,11.252,0,0,0-11.24-11.239h0A11.249,11.249,0,0,0,162.635,23.4Z" fill="#152054"/><path d="M242.121,106.466a29.481,29.481,0,1,1-29.48-29.484A29.48,29.48,0,0,1,242.121,106.466Z" fill="#f9e35d"/><path d="M181.2,106.466a31.439,31.439,0,0,1,31.436-31.439h0a31.436,31.436,0,0,1,31.437,31.439h0A31.436,31.436,0,0,1,212.639,137.9h0A31.438,31.438,0,0,1,181.2,106.466Zm3.909,0a27.561,27.561,0,0,0,27.527,27.523h0a27.559,27.559,0,0,0,27.526-27.523h0a27.56,27.56,0,0,0-27.526-27.528h0a27.562,27.562,0,0,0-27.527,27.528Z" fill="#152054"/><path d="M47.492,119.778l8.766-4.315,71.587,145.37-8.769,4.318L47.492,119.778Z" fill="#d6dae7"/><path d="M68.991,119.778l8.768-4.315,71.584,145.37-8.767,4.318L68.991,119.778Z" fill="#d6dae7"/><path d="M45.738,120.643l1.754-.864.863,1.752-.863-1.752-1.754.864-.865-1.754,12.274-6.042,73.315,148.878-12.277,6.045L45.738,120.643Zm74.228,141.888,5.261-2.59L55.368,118.078l-5.26,2.591,69.858,141.862Z" fill="#152054"/><path d="M67.236,120.643l1.755-.864.863,1.752-.863-1.752-1.755.864-.862-1.754,12.274-6.046,73.314,148.882-12.277,6.045L67.236,120.643Zm74.23,141.888,5.259-2.59L76.867,118.078l-5.261,2.591,69.86,141.862Z" fill="#152054"/><path d="M59.992,137.237,54.96,128.86,193.853,45.4l5.034,8.379L59.992,137.237Z" fill="#d6dae7"/><path d="M58.2,115.812l-5.033-8.376L192.061,23.973l5.032,8.378L58.2,115.812Z" fill="#d6dae7"/><path d="M61,138.913l-1.005-1.676,1.672-1.006-1.672,1.006L61,138.913l-1.675,1.006-7.045-11.727L194.522,42.716l7.048,11.73L61,138.913Zm135.2-85.8-3.02-5.027L57.641,129.531l3.019,5.025L196.2,53.108Z" fill="#152054"/><path d="M59.205,117.489,58.2,115.812l1.673-1-1.673,1,1.005,1.677L57.529,118.5l-7.048-11.728L192.73,21.292l7.045,11.73L59.205,117.489Zm135.2-85.8-3.018-5.028L55.847,108.106l3.02,5.027L194.409,31.684Z" fill="#152054"/><path d="M86.325,120.31A21.012,21.012,0,1,1,65.313,99.3,21.008,21.008,0,0,1,86.325,120.31Z" fill="#d6dae7"/><path d="M68.612,120.31a3.3,3.3,0,1,1-3.3-3.3A3.3,3.3,0,0,1,68.612,120.31Z" fill="#152054"/><path d="M53.829,120.31a11.485,11.485,0,0,1,11.484-11.484h0A11.481,11.481,0,0,1,76.795,120.31h0a11.485,11.485,0,0,1-11.482,11.484h0A11.489,11.489,0,0,1,53.829,120.31Zm3.909,0a7.582,7.582,0,0,0,7.575,7.571h0a7.58,7.58,0,0,0,7.573-7.571h0a7.583,7.583,0,0,0-7.573-7.576h0a7.584,7.584,0,0,0-7.575,7.576Z" fill="#152054"/><path d="M42.345,120.31A22.967,22.967,0,0,1,65.313,97.343h0A22.963,22.963,0,0,1,88.279,120.31h0a22.962,22.962,0,0,1-22.966,22.965h0A22.966,22.966,0,0,1,42.345,120.31Zm3.909,0a19.081,19.081,0,0,0,19.059,19.054h0A19.077,19.077,0,0,0,84.37,120.31h0a19.078,19.078,0,0,0-19.057-19.058h0A19.082,19.082,0,0,0,46.254,120.31Z" fill="#152054"/><path d="M261.081,78.849a17.623,17.623,0,0,0-12.52-9.91,59.907,59.907,0,0,1-43.087-40.994l-.111.031a14.553,14.553,0,0,0-.761-2.085,14.958,14.958,0,0,0-18.416-7.9l-.035-.07-22.82,10.507A14.96,14.96,0,0,0,156,48.269a15.16,15.16,0,0,0,1.1,1.945l-.02.014a59.86,59.86,0,0,1,3.48,58.7,17.641,17.641,0,0,0,22.367,25.331c.146-.068.288-.141.429-.211l.007.01,70.027-32.242-.013-.034A17.643,17.643,0,0,0,261.081,78.849Z" fill="#d6dae7"/><path d="M253.377,101.781a17.639,17.639,0,0,0-4.816-32.842,59.907,59.907,0,0,1-43.087-40.994l-.111.031a14.553,14.553,0,0,0-.761-2.085A14.957,14.957,0,0,0,189.219,17.3l-10.04,4.625A17.706,17.706,0,0,0,170.5,45.415a18.075,18.075,0,0,0,1.3,2.305l-.023.016a70.87,70.87,0,0,1,4.118,69.486,20.877,20.877,0,0,0-1.718,18.594,17.554,17.554,0,0,0,8.748-1.558c.146-.068.288-.141.429-.211l.007.01,70.027-32.242Z" fill="#f8fcfd"/><path d="M157.746,126.428a19.539,19.539,0,0,1-1.8-8.181h0a19.664,19.664,0,0,1,2.9-10.266h0a58.4,58.4,0,0,0,5.823-25.372h0A57.744,57.744,0,0,0,159.341,58.4h0a57.674,57.674,0,0,0-3.906-7.11h0l-1.04-1.62.084-.058c-.087-.168-.172-.343-.256-.521h0a16.87,16.87,0,0,1-1.553-7.067h0a16.918,16.918,0,0,1,9.843-15.371h0L187.072,15.34l.154.317a16.8,16.8,0,0,1,3.779-.429h0a16.923,16.923,0,0,1,15.373,9.841h0c.084.183.162.365.237.547h0l.182-.051.549,1.815a58.157,58.157,0,0,0,2.863,7.592h0a57.943,57.943,0,0,0,38.781,32.06h0a19.57,19.57,0,0,1,13.864,11h0l-1.775.816-1.775.818a15.668,15.668,0,0,0-11.135-8.813h0l-.045-.011-.035-.008a61.848,61.848,0,0,1-41.43-34.225h0a61.432,61.432,0,0,1-2.486-6.3h0l-.153.04-.535-1.833a12.526,12.526,0,0,0-.658-1.812h0a13.011,13.011,0,0,0-11.822-7.574h0a12.843,12.843,0,0,0-4.182.7h0l-.654.226L164.149,30.2a13.009,13.009,0,0,0-7.569,11.821h0a12.915,12.915,0,0,0,1.2,5.429h0a13.258,13.258,0,0,0,.957,1.693h0l1.066,1.62-.06.04a62.314,62.314,0,0,1,3.155,5.958h0a61.658,61.658,0,0,1,5.687,25.85h0a62.315,62.315,0,0,1-6.264,27.171h0l-.043.087-.052.088a15.753,15.753,0,0,0-2.366,8.292h0a15.607,15.607,0,0,0,1.442,6.547h0a15.683,15.683,0,0,0,14.259,9.128h0a15.654,15.654,0,0,0,6.555-1.442h0c.088-.039.211-.1.375-.186h0l1.574-.781.036.054,67.878-31.254.481-.257a15.7,15.7,0,0,0,8.288-13.846h0a15.6,15.6,0,0,0-1.44-6.545h0l1.775-.818,1.775-.816a19.483,19.483,0,0,1,1.8,8.179h0a19.618,19.618,0,0,1-8.813,16.375h0l.088.207L183.876,135.97c-.042.02-.087.042-.134.063h0c-.063.029-.126.058-.191.086h0l-.923.426-.02-.032a19.558,19.558,0,0,1-7.051,1.319h0a19.6,19.6,0,0,1-17.811-11.4Z" fill="#152054"/><path d="M186.041,275.293a21.481,21.481,0,0,0-21.5-21.337H85.871a21.481,21.481,0,0,0-21.5,21.337c0,.055,0,.107,0,.162H186.038C186.038,275.4,186.041,275.348,186.041,275.293Z" fill="#d6dae7"/><path d="M159.411,253.879a12.078,12.078,0,0,0-12.088-12H103.09a12.078,12.078,0,0,0-12.089,12c0,.031,0,.061,0,.092h68.407C159.409,253.94,159.411,253.91,159.411,253.879Z" fill="#d6dae7"/><path d="M65.907,269.508h77.145c7.069,0,12.857-5.277,12.857-11.727v-3.825H85.871a21.559,21.559,0,0,0-20.678,15.519C65.432,269.488,65.667,269.508,65.907,269.508Z" fill="#f8fcfd"/><path d="M91.865,250.629H135.24c3.975,0,7.229-2.969,7.229-6.6v-2.15H103.09a12.126,12.126,0,0,0-11.628,8.725C91.6,250.616,91.73,250.629,91.865,250.629Z" fill="#f8fcfd"/><path d="M85.871,253.956a21.567,21.567,0,0,0-17.907,9.567H83.589a11.766,11.766,0,0,0,11.518-9.567Z" fill="#fff"/><path d="M103.09,241.883a12.123,12.123,0,0,0-10.068,5.381h8.785a6.614,6.614,0,0,0,6.475-5.381Z" fill="#fff"/><path d="M186.041,275.293a21.481,21.481,0,0,0-21.5-21.337H85.871a21.481,21.481,0,0,0-21.5,21.337c0,.055,0,.107,0,.162H186.038C186.038,275.4,186.041,275.348,186.041,275.293Z" fill="none" stroke="#152054" stroke-width="4"/><path d="M159.411,253.879a12.078,12.078,0,0,0-12.088-12H103.09a12.078,12.078,0,0,0-12.089,12c0,.031,0,.061,0,.092h68.407C159.409,253.94,159.411,253.91,159.411,253.879Z" fill="none" stroke="#152054" stroke-width="4"/><path d="M533.807,201.678a6.024,6.024,0,0,0-4.125-3.4c-2.088-.561-5.5-.746-6.977-1.718-1.789-1.181-.611-5.481-.611-5.481a.209.209,0,0,0-.014-.024,4.812,4.812,0,0,0-2.609-5.513.226.226,0,0,1-.012-.031c-.238-.093-.459-.165-.67-.23-.056-.014-.108-.036-.164-.05-2.068-.574-2.95.179-6.352.268-2.886.074-4.123-3.117-4.554-4.687a3.777,3.777,0,0,0-4.448-3.324c-.048-.009-.1-.023-.137-.027-8.985,2.023-11.835.027-15.642.614s-4.633.956-5.334,2.927,3.354,3.191,5.17,5.318c1.441,1.687,1.722,5.131,1.775,6.493a3.787,3.787,0,0,0,3.5,4.031c1.7.282,4.689-1.284,6.011-.8,1.384.5,2.418,1.627.635,4.578a23.34,23.34,0,0,0-2.988,5.646l.013.015a4.815,4.815,0,0,0,2.5,6.045c.989.518,2.639.373,4.36,2.962,1.535,2.315-.578,5.707-1.543,7.041a6.033,6.033,0,0,0,7.021,9.469c.09-.04.172-.089.256-.131h.008l.063-.037a6.053,6.053,0,0,0,.6-.354c7.432-4.3,10.234-1.065,10.234-1.065,5.477-2.461,5.575-2.9,6.475-6.351,1.545-5.058,5.355-12.969,6.922-16.137A6.032,6.032,0,0,0,533.807,201.678Z" fill="#a2db69"/><path d="M529.682,198.281c-2.088-.561-5.5-.746-6.977-1.718-1.789-1.181-.611-5.481-.611-5.481a.209.209,0,0,0-.014-.024,4.812,4.812,0,0,0-2.609-5.513.226.226,0,0,1-.012-.031c-.238-.093-.459-.165-.67-.23-.056-.014-.108-.036-.164-.05-2.068-.574-2.95.179-6.352.268-2.886.074-4.123-3.117-4.554-4.687a3.769,3.769,0,0,0-1.77-2.82c-2.526,3.539-8.931,5.875-14.774,3.931-7.782-2.591-7.265-.263-5.973-.137s5.784,3.84,4.69,7.685,7.4-1.389,9,.19,0,3.53,3.2,1.826,5.14-1.517,1.567,3.883,3.36,2.371,6.489,1.673.613,4.31-7.647,6.349,3.6,1.914,11.008,3.877-1.312,2.97-5.32,4.066-2.012,3.375.541,2.58,8.871.691,6.858,4.064-9.817,3.09-10.722,5.792,1.882,2.417,10.778,1.6c6.289-.583,6.55,2.207,6.164,3.892,3.474-1.7,3.66-2.448,4.43-5.4,1.545-5.058,5.355-12.969,6.922-16.137a6.027,6.027,0,0,0-3.48-9.444Z" fill="#80c46a"/><path d="M529.424,204c.839,1.865-1.725,2.134-3.268,4.115-2.967,3.8-4.221,3.961-5.058,2.1s.369-6.695,2.66-7.726S528.584,202.135,529.424,204Z" fill="#a2db69"/><path d="M518.876,190.373c-.091,1.652-2.032.9-3.878,1.747-3.548,1.634-4.508,1.281-4.418-.372s2.754-4.679,4.783-4.568S518.967,188.72,518.876,190.373Z" fill="#a2db69"/><path d="M513.423,199.789a49.846,49.846,0,0,0-6.085-7.461,6.167,6.167,0,0,1-.129-4.57c.93-2.514-2.689-.846-2.994,1.677a45.169,45.169,0,0,0-5.237-3.855,3.822,3.822,0,0,1,.163-2.1c.593-1.606-1.735-.525-1.9,1.094l-.106-.057c-.026-.015-.055-.027-.082-.041l-.041-.021h0a.986.986,0,1,0-.6,1.865c.078.04.163.088.275.149a46.91,46.91,0,0,1,18.93,21.248,50.056,50.056,0,0,1,3.93,13.973.987.987,0,1,0,1.894-.394c-.067-.488-.146-.965-.223-1.442l0-.006a5.779,5.779,0,0,1,2.231-4.31c1.968-1.518-1.633-2-3.165-.219a50.332,50.332,0,0,0-2.907-8.4c-.247-.547-.5-1.078-.76-1.6a9.084,9.084,0,0,1,2-6.962C521.268,195.168,514.644,195.938,513.423,199.789Z" fill="#4aa957"/><path d="M528.161,196.962a7.057,7.057,0,0,1,4.833-3.978c2.443-.656,6.447-.873,8.168-2.01,2.1-1.386.719-6.421.719-6.421s.008-.017.013-.026a5.635,5.635,0,0,1,3.059-6.457l.012-.039c.281-.108.538-.192.785-.268.065-.018.129-.04.192-.058,2.425-.673,3.456.21,7.441.31,3.38.091,4.828-3.646,5.334-5.487a4.419,4.419,0,0,1,5.207-3.891c.056-.012.115-.027.162-.032,10.523,2.368,13.861.031,18.318.717s5.427,1.121,6.25,3.429-3.928,3.737-6.055,6.23c-1.687,1.973-2.017,6.008-2.08,7.6a4.43,4.43,0,0,1-4.1,4.719c-1.987.331-5.492-1.5-7.041-.941-1.621.589-2.832,1.9-.744,5.363a27.323,27.323,0,0,1,3.5,6.611l-.016.018a5.648,5.648,0,0,1-2.924,7.082c-1.158.6-3.094.436-5.107,3.468-1.8,2.709.679,6.684,1.806,8.244a7.066,7.066,0,0,1-8.224,11.09c-.1-.046-.2-.1-.3-.15l-.008,0-.074-.045a7.243,7.243,0,0,1-.7-.416c-8.7-5.037-11.986-1.245-11.986-1.245-6.416-2.882-6.531-3.4-7.584-7.439-1.81-5.925-6.271-15.191-8.107-18.9A7.06,7.06,0,0,1,528.161,196.962Z" fill="#a2db69"/><path d="M532.994,192.984c2.443-.656,6.447-.873,8.168-2.01,2.1-1.386.719-6.421.719-6.421s.008-.017.013-.026a5.635,5.635,0,0,1,3.059-6.457l.012-.039c.281-.108.538-.192.785-.268.065-.018.129-.04.192-.058,2.425-.673,3.456.21,7.441.31,3.38.091,4.828-3.646,5.334-5.487a4.457,4.457,0,0,1,.363-1.354,4.378,4.378,0,0,1,1.71-1.948c2.958,4.145,10.46,6.88,17.3,4.6,9.114-3.034,8.51-.308,7-.16s-6.776,4.5-5.493,9-8.675-1.625-10.54.225,0,4.134-3.75,2.137-6.023-1.777-1.837,4.548-3.939,2.778-7.6,1.96-.72,5.049,8.956,7.435-4.211,2.241-12.893,4.54,1.536,3.48,6.229,4.764,2.357,3.953-.635,3.022-10.387.809-8.029,4.762,11.5,3.617,12.557,6.781-2.2,2.832-12.622,1.87c-7.371-.682-7.673,2.587-7.222,4.56-4.068-1.992-4.285-2.869-5.188-6.326-1.81-5.925-6.271-15.191-8.107-18.9a7.058,7.058,0,0,1,4.078-11.061Z" fill="#80c46a"/><path d="M533.295,199.684c-.982,2.185,2.017,2.5,3.826,4.821,3.477,4.456,4.944,4.64,5.926,2.456s-.434-7.842-3.115-9.048S534.277,197.5,533.295,199.684Z" fill="#a2db69"/><path d="M545.648,183.723c.106,1.935,2.381,1.05,4.543,2.046,4.155,1.914,5.278,1.5,5.175-.434s-3.225-5.48-5.6-5.35S545.543,181.787,545.648,183.723Z" fill="#a2db69"/><path d="M552.033,194.752a58.425,58.425,0,0,1,7.129-8.739,7.224,7.224,0,0,0,.152-5.353c-1.089-2.943,3.149-.991,3.5,1.967a52.642,52.642,0,0,1,6.137-4.517,4.493,4.493,0,0,0-.192-2.465c-.7-1.882,2.032-.613,2.229,1.281.047-.023.092-.049.125-.067s.065-.03.1-.047l.048-.024h0a1.142,1.142,0,0,1,.947-.006,1.157,1.157,0,0,1-.244,2.19c-.089.046-.19.1-.321.173a54.94,54.94,0,0,0-22.17,24.886,58.6,58.6,0,0,0-4.6,16.367,1.142,1.142,0,0,1-.1.468,1.156,1.156,0,0,1-2.118-.928c.076-.574.17-1.133.26-1.691l0-.006a6.767,6.767,0,0,0-2.612-5.05c-2.3-1.777,1.913-2.343,3.707-.255a59.017,59.017,0,0,1,3.4-9.833c.289-.642.588-1.263.891-1.878a10.629,10.629,0,0,0-2.345-8.156C542.848,189.34,550.6,190.239,552.033,194.752Z" fill="#4aa957"/><path d="M558.846,204.256A7.994,7.994,0,0,0,555.7,197.9c-2.221-1.814-6.258-3.9-7.51-5.875-1.521-2.4,2.244-6.97,2.244-6.97s0-.021,0-.032a6.388,6.388,0,0,0-.161-8.1.315.315,0,0,0,0-.044c-.238-.244-.464-.451-.685-.644l-.172-.149c-2.189-1.822-3.668-1.387-7.836-3.133-3.533-1.481-3.292-6.015-2.96-8.154a5.01,5.01,0,0,0-3.577-6.441,1.35,1.35,0,0,0-.15-.105c-11.977-2.444-14.34-6.41-19.268-7.772s-6.129-1.361-8.051.641,2.322,5.688,3.365,9.254c.825,2.824-.71,7.145-1.384,8.825a5.02,5.02,0,0,0,2.039,6.78c1.9,1.265,6.377,1,7.717,2.3,1.4,1.361,2.043,3.284-1.723,5.888a30.96,30.96,0,0,0-6.69,5.207l.008.025a6.393,6.393,0,0,0-.27,8.678c.917,1.163,2.993,1.889,3.667,5.957.6,3.635-3.807,6.6-5.7,7.682a8.01,8.01,0,0,0,3.348,15.287c.129,0,.254-.015.381-.022l.007.007c.034,0,.063-.007.1-.013a7.921,7.921,0,0,0,.916-.1c11.336-1.162,12.965,4.282,12.965,4.282,7.973,0,8.332-.48,11.3-4.166,4.624-5.283,13.539-12.786,17.159-15.768A8,8,0,0,0,558.846,204.256Z" fill="#c5e201"/><path d="M555.7,197.9c-2.221-1.814-6.258-3.9-7.51-5.875-1.521-2.4,2.244-6.97,2.244-6.97s0-.021,0-.032a6.388,6.388,0,0,0-.161-8.1.315.315,0,0,0,0-.044c-.238-.244-.464-.451-.685-.644l-.172-.149c-2.189-1.822-3.668-1.387-7.836-3.133-3.533-1.481-3.292-6.015-2.96-8.154a5.039,5.039,0,0,0,.253-1.568,4.984,4.984,0,0,0-.861-2.807c-4.985,2.91-14.008,2.253-20.024-3.281-8.011-7.37-8.652-4.272-7.156-3.416s4.913,7.795,1.5,11.857,9.721,2.349,10.788,5.126-1.923,4.273,2.886,3.952,7.047.961-.215,5.555,2.777,4.7,6.943,5.553-1.6,5.555-12.712,3.526,3.312,4.271,11.216,10.682-3.2,2.884-8.652,2.03-4.272,2.99-.748,3.418,10.361,5.661,6.089,8.652-13.566-1.6-16.129,1.175.962,3.953,12.177,7.8c7.931,2.718,6.728,6.236,5.343,8.066,5.131-.168,5.765-.973,8.3-4.128,4.624-5.283,13.539-12.786,17.159-15.768A8,8,0,0,0,555.7,197.9Z" fill="#a5d600"/><path d="M552.275,204.684c0,2.713-3.248,1.646-6.2,3.205-5.662,2.99-7.264,2.5-7.264-.215s4.09-7.9,7.424-7.9S552.275,201.97,552.275,204.684Z" fill="#c5e201"/><path d="M546.923,182.447c-1.008,1.952-2.948-.02-5.648,0-5.18.048-6.151-.9-5.143-2.853s5.878-4.165,8.274-2.927S547.931,180.5,546.923,182.447Z" fill="#c5e201"/><path d="M535.2,190.879a66.534,66.534,0,0,0-3.306-12.343,8.167,8.167,0,0,1,2.33-5.6c2.491-2.537-2.8-2.488-4.538.4a59.468,59.468,0,0,0-4.244-7.518,5.109,5.109,0,0,1,1.346-2.457c1.592-1.623-1.816-1.581-2.9.288-.033-.046-.071-.093-.1-.125s-.051-.063-.076-.1l-.037-.048,0,0a1.3,1.3,0,0,0-.978-.448,1.31,1.31,0,0,0-.763,2.376c.069.09.149.193.249.329a62.245,62.245,0,0,1,11.355,36.022,66.447,66.447,0,0,1-2.848,19.055,1.339,1.339,0,0,0-.113.531,1.311,1.311,0,0,0,2.621.022c.188-.628.35-1.247.516-1.867l0,0a7.676,7.676,0,0,1,5.049-4.006c3.207-.767-.889-3.312-3.712-1.988a67.226,67.226,0,0,0,1.048-11.743c0-.795-.019-1.578-.047-2.354a12.032,12.032,0,0,1,6.212-7.34C547.207,189.555,538.771,186.88,535.2,190.879Z" fill="#87be00"/><path d="M548.471,228.6a3.922,3.922,0,0,0-1.823.45,4.4,4.4,0,0,0-6.052-1.709,2.868,2.868,0,0,0-4.981-.186,3.3,3.3,0,0,0-3.193.207,4.4,4.4,0,0,0-7.9-.133,2.87,2.87,0,0,0-3.9,1.883,2.747,2.747,0,0,0-2.937-.011,4.4,4.4,0,1,0-3.588,7.334v.017h34.287v-.005c.029,0,.054.005.082.005a3.926,3.926,0,0,0,0-7.852Z" fill="#7b6769"/><path d="M568.1,253.393c0,10.4-9.518,18.907-21.151,18.907H514.582c-11.632,0-21.148-8.509-21.148-18.907s9.516-18.907,21.148-18.907h32.367C558.582,234.486,568.1,242.994,568.1,253.393Z" fill="#d5cdbd"/><path d="M545.9,234.486H514.582c-11.632,0-21.148,8.508-21.148,18.907a17.693,17.693,0,0,0,5.113,12.285h31.31c11.633,0,21.151-8.509,21.151-18.908A17.684,17.684,0,0,0,545.9,234.486Z" fill="#eae6de"/><path d="M526.867,255.956c0,3.912-3.581,7.114-7.957,7.114H506.732c-4.377,0-7.957-3.2-7.957-7.114s3.58-7.114,7.957-7.114H518.91C523.286,248.842,526.867,252.044,526.867,255.956Z" fill="#f4f2ee"/><path d="M545.027,240.147a3.551,3.551,0,0,1-3.722,3.326h-5.7a3.348,3.348,0,1,1,0-6.654h5.7A3.552,3.552,0,0,1,545.027,240.147Z" fill="#f4f2ee"/><path d="M521.941,238.652a2.639,2.639,0,0,1-2.765,2.473h-4.233a2.488,2.488,0,1,1,0-4.944h4.233A2.638,2.638,0,0,1,521.941,238.652Z" fill="#f4f2ee"/><path d="M553.752,267.707a3.553,3.553,0,0,1-3.722,3.327h-5.7a3.348,3.348,0,1,1,0-6.655h5.7A3.554,3.554,0,0,1,553.752,267.707Z" fill="#e0dbd0"/><path d="M560.663,267.211H500.957a3.271,3.271,0,0,0-.68.074,22.494,22.494,0,0,0,14.3,5.015h32.367a22.483,22.483,0,0,0,14.32-5.028A3.2,3.2,0,0,0,560.663,267.211Z" fill="#bcb2a2" opacity="0.2"/><path d="M564.469,272.219a3.806,3.806,0,0,1-3.806,3.806H500.957a3.806,3.806,0,0,1-3.806-3.806h0a3.806,3.806,0,0,1,3.806-3.807h59.706a3.806,3.806,0,0,1,3.806,3.807Z" fill="#eae6de"/><path d="M500.957,273.922a3.789,3.789,0,0,0-2.615,1.051,3.781,3.781,0,0,0,2.615,1.052h59.706a3.778,3.778,0,0,0,2.614-1.052,3.786,3.786,0,0,0-2.614-1.051Z" fill="#bcb2a2" opacity="0.2"/><path d="M441.971,136.788a4.908,4.908,0,0,0-4.869-4.869l-196.293,0a4.906,4.906,0,0,0-4.869,4.867v41.555h0v87.415H441.969V178.343h0Z" fill="#d8ecf3"/><path d="M443.941,137.815a8.032,8.032,0,0,0-8.017-8.015l-193.941,0a8.026,8.026,0,0,0-8.012,8.013v41.057h0v89.574H443.941Zm-3.206,127.426H237.176V178.872h0V137.815a4.845,4.845,0,0,1,4.809-4.809H435.924a4.848,4.848,0,0,1,4.812,4.81v41.057h0Z" fill="#152054"/><path d="M1.624,0H242.54a1.624,1.624,0,0,1,1.624,1.624V8.661a1.626,1.626,0,0,1-1.626,1.626H1.626A1.626,1.626,0,0,1,0,8.661V1.624A1.624,1.624,0,0,1,1.624,0Z" transform="translate(217.188 266.79)" fill="#d8ecf3"/><path d="M217.187,272.22v3.231a1.629,1.629,0,0,0,1.624,1.626H459.728a1.631,1.631,0,0,0,1.624-1.626V272.22Z" fill="#b9d0d6"/><path d="M1.625,0h188.4a1.624,1.624,0,0,1,1.624,1.624V117.753a1.623,1.623,0,0,1-1.623,1.623H1.625A1.625,1.625,0,0,1,0,117.751V1.625A1.625,1.625,0,0,1,1.625,0Z" transform="translate(243.444 139.819)" fill="#f4fafe"/><path d="M218.811,278.678a3.229,3.229,0,0,1-3.227-3.227h0v-7.037a3.23,3.23,0,0,1,3.227-3.227H459.728a3.228,3.228,0,0,1,3.226,3.226h0v7.037a3.232,3.232,0,0,1-3.226,3.229h0l-240.917,0Zm-.022-10.264v7.037l.022.022H459.728l.02-.023h0v-7.037l-.02-.021-240.917,0-.022.023Z" fill="#152054"/><path d="M105.972,292.956v33.472a10.408,10.408,0,0,0-6.542-2.417c-6.805,0-12.322,7.042-12.322,15.727,0,.171.016.335.019.5h-.488V292.956Z" fill="#f3885f"/><rect width="21.137" height="10.718" transform="translate(85.59 293.558)" fill="#152054" opacity="0.3"/><path d="M1.6,0h0a1.6,1.6,0,0,1,1.6,1.6V41.673a1.6,1.6,0,0,1-1.6,1.6h0a1.6,1.6,0,0,1-1.6-1.6V1.6A1.6,1.6,0,0,1,1.6,0Z" transform="translate(104.203 292.655)" fill="#152054"/><path d="M86.64,344.547a1.609,1.609,0,0,0,1.6-1.6V294.258a1.61,1.61,0,0,0-1.6-1.6h0a1.609,1.609,0,0,0-1.6,1.6v48.687a1.608,1.608,0,0,0,1.6,1.6Z" fill="#152054"/><path d="M86.64,353.9a1.607,1.607,0,0,0,1.6-1.6v-1.137a1.6,1.6,0,0,0-3.2,0V352.3A1.607,1.607,0,0,0,86.64,353.9Z" fill="#152054"/><path d="M105.807,353.9a1.608,1.608,0,0,0,1.6-1.6v-9.148a1.609,1.609,0,0,0-1.6-1.6h0a1.61,1.61,0,0,0-1.6,1.6V352.3a1.609,1.609,0,0,0,1.6,1.6Z" fill="#152054"/><path d="M504.28,292.956v33.472a10.408,10.408,0,0,1,6.542-2.417c6.807,0,12.322,7.042,12.322,15.727,0,.171-.015.335-.019.5h.488V292.956Z" fill="#f3885f"/><rect width="21.139" height="10.718" transform="translate(503.93 293.558)" fill="#152054" opacity="0.3"/><path d="M1.6,0h0a1.6,1.6,0,0,1,1.6,1.6v40.07a1.6,1.6,0,0,1-1.6,1.6h0a1.6,1.6,0,0,1-1.6-1.6V1.6A1.6,1.6,0,0,1,1.6,0Z" transform="translate(502.842 292.655)" fill="#152054"/><path d="M1.6,0h0a1.6,1.6,0,0,1,1.6,1.6V50.289a1.6,1.6,0,0,1-1.6,1.6h0a1.6,1.6,0,0,1-1.6-1.6V1.6A1.6,1.6,0,0,1,1.6,0Z" transform="translate(522.008 292.654)" fill="#152054"/><path d="M523.613,353.9a1.606,1.606,0,0,1-1.6-1.6v-1.137a1.6,1.6,0,0,1,3.2,0V352.3A1.606,1.606,0,0,1,523.613,353.9Z" fill="#152054"/><path d="M504.444,353.9a1.607,1.607,0,0,1-1.6-1.6v-9.148a1.608,1.608,0,0,1,1.6-1.6h0a1.609,1.609,0,0,1,1.605,1.6V352.3a1.607,1.607,0,0,1-1.605,1.6Z" fill="#152054"/><path d="M6.41,0H537.482a6.412,6.412,0,0,1,6.412,6.412v2.67a6.412,6.412,0,0,1-6.412,6.412H6.411A6.411,6.411,0,0,1,0,9.083V6.41A6.41,6.41,0,0,1,6.41,0Z" transform="translate(33.178 277.496)" fill="#f8a382"/><path d="M33.178,286.445v.135a6.43,6.43,0,0,0,6.412,6.41H570.664a6.427,6.427,0,0,0,6.408-6.41v-.135Z" fill="#f3885f"/><path d="M39.59,294.594a8.031,8.031,0,0,1-8.013-8.015h0v-2.672a8.029,8.029,0,0,1,8.013-8.015h0l531.074,0a8.031,8.031,0,0,1,8.014,8.013h0v2.672a8.035,8.035,0,0,1-8.014,8.015H39.59Zm-4.809-10.687v2.672a4.843,4.843,0,0,0,4.809,4.808H570.664a4.841,4.841,0,0,0,4.807-4.808h0v-2.672a4.842,4.842,0,0,0-4.807-4.809H39.59a4.843,4.843,0,0,0-4.809,4.809Z" fill="#152054"/><path d="M66.082,248.092a9.648,9.648,0,0,0-9.618,9.619v6.811a9.647,9.647,0,0,0,9.618,9.618h73.33V248.092Z" fill="#d8ecf3"/><path d="M66.082,274.14h73.33V268.8H57.484A9.64,9.64,0,0,0,66.082,274.14Z" fill="#9eccd8"/><path d="M72.289,262.852a1.607,1.607,0,0,1-1.6-1.6h0a1.607,1.607,0,0,1,1.6-1.6h31.192a1.606,1.606,0,0,1,1.6,1.6h0a1.607,1.607,0,0,1-1.6,1.6Z" fill="#152054"/><path d="M110.956,262.852a1.607,1.607,0,0,1-1.6-1.6h0a1.607,1.607,0,0,1,1.6-1.6h2.675a1.607,1.607,0,0,1,1.6,1.6h0a1.607,1.607,0,0,1-1.6,1.6Z" fill="#152054"/><path d="M129.993,262.852a1.607,1.607,0,0,1-1.6-1.6h0a1.606,1.606,0,0,1,1.6-1.6h8.151a1.608,1.608,0,0,1,1.6,1.6h0a1.608,1.608,0,0,1-1.6,1.6Z" fill="#152054"/><path d="M145.359,272.8H140.68V249.16h4.679a1.6,1.6,0,1,0,0-3.205H67.421A12.856,12.856,0,0,0,54.6,258.778v4.408a12.858,12.858,0,0,0,12.824,12.823h77.938a1.608,1.608,0,0,0,1.6-1.6v0A1.607,1.607,0,0,0,145.359,272.8Zm-77.938,0a9.671,9.671,0,0,1-9.616-9.616l0-4.408a9.675,9.675,0,0,1,9.618-9.618h70.053V272.8Z" fill="#152054"/><path d="M87.385,279.2l-8.064-4.059L71.357,279.2V261.248H87.385Z" fill="#f55d6c"/><path d="M69.754,259.645H88.988V281.8l-9.662-4.863-9.572,4.876V259.645ZM87.387,279.2l.718-1.434-.718,1.434Zm-1.605-2.6V262.852H72.96V276.58l6.357-3.236,6.465,3.251Z" fill="#152054"/><path d="M123.635,224.358a7.49,7.49,0,0,1,7.467,7.468v5.289a7.489,7.489,0,0,1-7.467,7.469H66.7V224.358Z" fill="#d8ecf3"/><path d="M123.635,244.584H66.7v-4.149h63.615A7.485,7.485,0,0,1,123.635,244.584Z" fill="#9eccd8"/><path d="M1.245,0H25.466A1.244,1.244,0,0,1,26.71,1.244v0a1.244,1.244,0,0,1-1.244,1.244H1.243A1.243,1.243,0,0,1,0,1.246v0A1.245,1.245,0,0,1,1.245,0Z" transform="translate(93.351 233.328)" fill="#152054"/><path d="M1.243,0H3.322A1.244,1.244,0,0,1,4.566,1.244v0A1.244,1.244,0,0,1,3.322,2.489H1.243A1.243,1.243,0,0,1,0,1.246v0A1.243,1.243,0,0,1,1.243,0Z" transform="translate(85.469 233.328)" fill="#152054"/><path d="M1.243,0h6.33A1.244,1.244,0,0,1,8.817,1.244v0A1.244,1.244,0,0,1,7.573,2.489H1.243A1.243,1.243,0,0,1,0,1.246v0A1.243,1.243,0,0,1,1.243,0Z" transform="translate(66.436 233.328)" fill="#152054"/><path d="M60.833,244.789v0a1.247,1.247,0,0,0,1.244,1.243H122.6a9.98,9.98,0,0,0,9.956-9.957v-3.421A9.978,9.978,0,0,0,122.6,222.7H62.077a1.244,1.244,0,0,0,0,2.489H65.71v18.357H62.077A1.248,1.248,0,0,0,60.833,244.789Zm7.366-1.244V225.188h54.4a7.509,7.509,0,0,1,7.468,7.468l0,3.421a7.509,7.509,0,0,1-7.466,7.468Z" fill="#152054"/><path d="M107.093,248.51l6.261-3.15,6.184,3.15V234.574H107.093Z" fill="#f55d6c"/><path d="M120.784,233.328v17.211l-7.432-3.786-7.5,3.775v-17.2ZM107.093,248.51l-.559-1.113.559,1.113Zm1.245-2.021,5.021-2.525,4.936,2.515V235.817h-9.957v10.672Z" fill="#152054"/><g opacity="0.3"><path d="M8.582,0H60.071a8.58,8.58,0,0,1,8.58,8.58V22.342a8.582,8.582,0,0,1-8.582,8.582H8.582A8.582,8.582,0,0,1,0,22.342V8.582A8.582,8.582,0,0,1,8.582,0Z" transform="translate(351.003 71.03)" fill="#d8ecf3"/><path d="M419.654,94.827c0,3.921-3.594,7.127-7.985,7.127H363.756c-4.393,0-7.985-3.206-7.985-7.127V83.4c0-3.92,3.592-7.126,7.985-7.126h47.913c4.391,0,7.985,3.206,7.985,7.126Z" fill="#b9d0d6"/><path d="M349.572,93.371V79.612A10.035,10.035,0,0,1,359.583,69.6h51.489a10.036,10.036,0,0,1,10.012,10.012h0V93.371a10.035,10.035,0,0,1-10.012,10.012h0l-51.489,0a10.039,10.039,0,0,1-10.011-10.015Zm10.011-20.909a7.189,7.189,0,0,0-7.149,7.15h0V93.371a7.192,7.192,0,0,0,7.149,7.153h0l51.489,0a7.2,7.2,0,0,0,7.153-7.151h0V79.612a7.2,7.2,0,0,0-7.153-7.152h0l-51.489,0Z" fill="#152054"/><rect width="68.65" height="30.923" rx="8.581" transform="translate(382.558 40.103)" fill="#d8ecf3"/><path d="M451.208,63.9c0,3.919-3.593,7.125-7.983,7.125H395.309c-4.389,0-7.983-3.206-7.983-7.125V52.472c0-3.919,3.594-7.124,7.983-7.124h47.916c4.39,0,7.983,3.205,7.983,7.124Z" fill="#b9d0d6"/><path d="M381.127,62.443V48.684a10.037,10.037,0,0,1,10.013-10.012h0l51.488,0a10.039,10.039,0,0,1,10.012,10.014h0V62.443a10.036,10.036,0,0,1-10.012,10.012H391.139a10.035,10.035,0,0,1-10.012-10.012Zm10.012-20.91a7.192,7.192,0,0,0-7.151,7.151h0V62.443a7.194,7.194,0,0,0,7.151,7.153h0l51.488,0a7.194,7.194,0,0,0,7.151-7.151h0V48.684a7.2,7.2,0,0,0-7.151-7.153h0l-51.488,0Z" fill="#152054"/></g><g opacity="0.3"><rect width="68.651" height="30.923" rx="8.581" transform="translate(242.644 343.488)" fill="#d8ecf3"/><path d="M311.294,367.285c0,3.92-3.593,7.126-7.985,7.126H255.4c-4.392,0-7.984-3.206-7.984-7.126V355.859c0-3.919,3.592-7.127,7.984-7.127h47.913c4.392,0,7.985,3.208,7.985,7.127Z" fill="#b9d0d6"/><path d="M241.213,365.829v-13.76a10.035,10.035,0,0,1,10.012-10.01h51.489a10.034,10.034,0,0,1,10.011,10.01h0v13.76a10.033,10.033,0,0,1-10.011,10.011h0l-51.489,0a10.037,10.037,0,0,1-10.011-10.014Zm10.011-20.91a7.193,7.193,0,0,0-7.151,7.15h0v13.76a7.194,7.194,0,0,0,7.151,7.153h0l51.489,0a7.19,7.19,0,0,0,7.15-7.15h0v-13.76a7.2,7.2,0,0,0-7.15-7.153h0l-51.489,0Z" fill="#152054"/><path d="M8.582,0H60.069a8.581,8.581,0,0,1,8.581,8.581V22.344a8.58,8.58,0,0,1-8.58,8.58H8.58A8.58,8.58,0,0,1,0,22.344V8.582A8.582,8.582,0,0,1,8.582,0Z" transform="translate(211.983 312.56)" fill="#d8ecf3"/><path d="M280.633,336.356c0,3.919-3.593,7.128-7.984,7.128H224.736c-4.393,0-7.985-3.209-7.985-7.128V324.93c0-3.919,3.592-7.126,7.985-7.126h47.913c4.391,0,7.984,3.207,7.984,7.126Z" fill="#b9d0d6"/><path d="M210.554,334.9l0-13.757a10.035,10.035,0,0,1,10.012-10.012h51.489a10.036,10.036,0,0,1,10.011,10.012h0V334.9a10.032,10.032,0,0,1-10.011,10.012h0l-51.489,0a10.031,10.031,0,0,1-10.01-10.014Zm10.01-20.907a7.192,7.192,0,0,0-7.151,7.15h0V334.9a7.194,7.194,0,0,0,7.151,7.155h0l51.489,0A7.194,7.194,0,0,0,279.2,334.9h0V321.141a7.2,7.2,0,0,0-7.151-7.152h0l-51.489,0Z" fill="#152054"/><path d="M8.582,0H60.07a8.581,8.581,0,0,1,8.581,8.581V22.344a8.58,8.58,0,0,1-8.58,8.58H8.58A8.58,8.58,0,0,1,0,22.344V8.582A8.582,8.582,0,0,1,8.582,0Z" transform="translate(280.873 312.56)" fill="#d8ecf3"/><path d="M349.523,336.356c0,3.919-3.594,7.128-7.986,7.128H293.625c-4.392,0-7.985-3.209-7.985-7.128V324.93c0-3.919,3.593-7.126,7.985-7.126h47.912c4.392,0,7.986,3.207,7.986,7.126Z" fill="#b9d0d6"/><path d="M279.442,334.9l0-13.757a10.037,10.037,0,0,1,10.014-10.012h51.487a10.036,10.036,0,0,1,10.012,10.012h0V334.9a10.032,10.032,0,0,1-10.012,10.012h0l-51.487,0A10.033,10.033,0,0,1,279.442,334.9Zm10.012-20.907a7.191,7.191,0,0,0-7.152,7.15h0V334.9a7.193,7.193,0,0,0,7.152,7.155h0l51.487,0a7.2,7.2,0,0,0,7.153-7.153h0V321.141a7.2,7.2,0,0,0-7.153-7.152h0l-51.487,0Z" fill="#152054"/></g><path d="M278.184,139.819H245.068a1.628,1.628,0,0,0-1.624,1.623V257.57a1.629,1.629,0,0,0,1.624,1.625H398.119Z" fill="#fff" opacity="0.2"/><path d="M245.067,260.8a3.232,3.232,0,0,1-3.227-3.227h0V141.442a3.23,3.23,0,0,1,3.227-3.226h188.4a3.229,3.229,0,0,1,3.226,3.226h0V257.57a3.233,3.233,0,0,1-3.226,3.227h-188.4Zm-.022-119.355V257.57l.022.022h188.4l.02-.022V141.442l-.02-.022h-188.4l-.022.022Z" fill="#152054"/></g></svg>