<svg xmlns="http://www.w3.org/2000/svg" width="336.166" height="858.829" viewBox="0 0 336.166 858.829"><path d="M1920,1438.116a132.705,132.705,0,0,0-68.6,34.755,135.93,135.93,0,0,0-41.82,91.807c-2.068,26.1-14.51,53.043-36.664,74.188-18.541,17.7-40.826,28.412-62.941,31.938-31.33,2.057-61.256,14.1-84.756,36.534-57.486,54.871-54.74,151.055,6.135,214.834a172.381,172.381,0,0,0,69.721,44.671c39.455,15.243,80.537,42.711,116.738,80.641,55.135,57.763,85.533,125.708,85.953,180.566l.012.009A178.774,178.774,0,0,0,1920,2296.945Z" transform="translate(-1583.834 -1438.116)" fill="#f4fafe"/></svg>